G04*
G04 #@! TF.GenerationSoftware,Altium Limited,Altium Designer,22.2.1 (43)*
G04*
G04 Layer_Physical_Order=1*
G04 Layer_Color=255*
%FSLAX44Y44*%
%MOMM*%
G71*
G04*
G04 #@! TF.SameCoordinates,9EA06B20-4A3A-45EB-A118-918BD9F5FCFE*
G04*
G04*
G04 #@! TF.FilePolarity,Positive*
G04*
G01*
G75*
%ADD10C,0.5000*%
%ADD11R,1.5000X1.5000*%
%ADD12C,1.5000*%
%ADD13C,1.9000*%
%ADD14C,1.4000*%
%ADD15R,1.0500X1.0500*%
%ADD16C,1.0500*%
D10*
X127000Y214769D02*
Y345686D01*
X85615Y173385D02*
X127000Y214769D01*
X67000Y115000D02*
Y287203D01*
X106547Y326750D01*
X83000Y352000D02*
X120686D01*
X24000Y411000D02*
X83000Y352000D01*
X120686D02*
X127000Y345686D01*
X106547Y326750D02*
X109050D01*
X111000Y328700D01*
X117000Y368000D02*
X158300Y409300D01*
X93000Y376000D02*
X113686D01*
X89627Y368000D02*
X117000D01*
X158300Y409300D02*
Y429232D01*
X113686Y376000D02*
X132900Y395214D01*
Y428690D01*
X92500Y403249D02*
X103749Y392000D01*
X106000D01*
X92500Y403249D02*
Y443400D01*
X48000Y421000D02*
X93000Y376000D01*
X260187Y484087D02*
X267087D01*
X269000Y486000D01*
X339000Y485000D02*
X371000Y517000D01*
X237294Y497130D02*
X240000D01*
X232424Y502000D02*
X237294Y497130D01*
X614087Y535087D02*
X616000Y537000D01*
X614087Y529087D02*
Y535087D01*
X607000Y571000D02*
X626640D01*
X613155Y585139D02*
X615339D01*
X626640Y571000D02*
X627621Y571980D01*
X612294Y509000D02*
X618294Y503000D01*
X621000D01*
X614314Y490000D02*
X633385D01*
X603314Y501000D02*
X614314Y490000D01*
X580300Y474000D02*
X641000D01*
X600000Y493000D02*
X611000Y482000D01*
X633385Y490000D02*
X637297Y493913D01*
X641000Y474000D02*
X654000Y487000D01*
X564700Y458400D02*
X580300Y474000D01*
X611000Y482000D02*
X636698D01*
X645297Y490599D01*
X480052Y509000D02*
X612294D01*
X637297Y493913D02*
Y556396D01*
X234500Y458400D02*
X260187Y484087D01*
X92500Y443400D02*
X107500Y458400D01*
X181500Y486000D02*
X209100Y458400D01*
X84740Y486000D02*
X181500D01*
X164100Y478000D02*
X183700Y458400D01*
X95602Y478000D02*
X164100D01*
X371000Y517000D02*
X602000D01*
X657808Y472808D02*
X666000Y481000D01*
Y482000D01*
X657808Y452214D02*
Y472808D01*
X590169Y458469D02*
X644738D01*
X644808Y458539D01*
X650000Y444407D02*
X657808Y452214D01*
X658000Y441093D02*
X670808Y453901D01*
X590100Y458400D02*
X590169Y458469D01*
X662000Y504385D02*
X684000Y482385D01*
X675000Y511000D02*
X692000Y494000D01*
Y365000D02*
Y494000D01*
X611326Y326000D02*
X684000Y398674D01*
Y482385D01*
X637000Y310000D02*
X692000Y365000D01*
X662000Y529785D02*
X676185Y543969D01*
X662000Y504385D02*
Y529785D01*
X645297Y553082D02*
X648621Y556406D01*
X637297Y556396D02*
X640621Y559720D01*
X618385Y601000D02*
X640621Y578764D01*
X645297Y490599D02*
Y553082D01*
X658297Y543274D02*
Y545980D01*
X654000Y487000D02*
Y538977D01*
X658297Y543274D01*
X501500Y493000D02*
X600000D01*
X478615Y501000D02*
X603314D01*
X361500Y477500D02*
X393000Y509000D01*
X513900Y410830D02*
X545230Y379500D01*
X577500Y368000D02*
X579000Y366500D01*
X536500Y368000D02*
X577500D01*
X545230Y379500D02*
X607500D01*
X609192Y377808D01*
X621294Y318000D02*
X627294Y324000D01*
X630000D01*
X374000Y318000D02*
X621294D01*
X602000Y517000D02*
X614087Y529087D01*
X538150Y459236D02*
Y459393D01*
X517543Y480000D02*
X538150Y459393D01*
X517386Y480000D02*
X517543D01*
X488500Y458400D02*
Y480000D01*
X501500Y493000D01*
X480052Y509000D02*
X480052Y509000D01*
X393000Y509000D02*
X480052D01*
X437700Y460085D02*
X478615Y501000D01*
X539300Y409700D02*
X555000Y394000D01*
X645385D02*
X656000Y404615D01*
X555000Y394000D02*
X645385D01*
X624039Y361341D02*
X664000Y401302D01*
X594484Y361341D02*
X624039D01*
X597551Y348341D02*
X600257D01*
X453000Y342000D02*
X591211D01*
X583143Y350000D02*
X594484Y361341D01*
X591211Y342000D02*
X597551Y348341D01*
X488500Y416000D02*
X536500Y368000D01*
X436000Y334000D02*
X608012D01*
X664000Y401302D02*
Y424324D01*
X613100Y410000D02*
X643000D01*
X672000Y397988D02*
Y434708D01*
X650000Y427010D02*
X656000Y421010D01*
X608012Y334000D02*
X672000Y397988D01*
X417000Y326000D02*
X611326D01*
X671000Y435708D02*
X672000Y434708D01*
X656000Y404615D02*
Y421010D01*
X658000Y430324D02*
X664000Y424324D01*
X650000Y427010D02*
Y444407D01*
X658000Y430324D02*
Y441093D01*
X590100Y433000D02*
X613100Y410000D01*
X463100Y408900D02*
X522000Y350000D01*
X361500Y408500D02*
X436000Y334000D01*
X522000Y350000D02*
X583143D01*
X285300Y406700D02*
X374000Y318000D01*
X309000Y310000D02*
X637000D01*
X336100Y406900D02*
X417000Y326000D01*
X234500Y384500D02*
X309000Y310000D01*
X386900Y408100D02*
X453000Y342000D01*
X648621Y556406D02*
Y590145D01*
X640621Y559720D02*
Y578764D01*
X646766Y592000D02*
X648621Y590145D01*
X412300Y452400D02*
Y480300D01*
X425000Y493000D01*
X386900Y478900D02*
X400000Y492000D01*
Y493000D01*
X539300Y409700D02*
Y427000D01*
X565635Y407000D02*
Y426065D01*
X263255Y510130D02*
X285300Y488085D01*
X266568Y518130D02*
X310700Y473998D01*
Y452400D02*
Y473998D01*
X67444Y510130D02*
X263255D01*
X64130Y518130D02*
X266568D01*
X285300Y456188D02*
Y488085D01*
X234500Y384500D02*
Y428770D01*
X259000Y426100D02*
X259450Y425650D01*
Y379450D02*
Y425650D01*
X259000Y379000D02*
X259450Y379450D01*
X183850Y407150D02*
X184000Y407000D01*
X183850Y407150D02*
Y426500D01*
X437350Y406350D02*
Y426650D01*
X437000Y406000D02*
X437350Y406350D01*
Y426650D02*
X437700Y427000D01*
X259000Y101300D02*
X259300Y101000D01*
X259000Y101300D02*
Y225000D01*
X8000Y568057D02*
X32943Y593000D01*
X349000D01*
X360600Y581400D01*
X31257Y580000D02*
X208400D01*
X593000Y585000D02*
X607000Y571000D01*
X437000Y580000D02*
X439706D01*
X444706Y585000D01*
X593000D01*
X412000Y580000D02*
X425000Y593000D01*
X605294D01*
X386800Y581800D02*
X406000Y601000D01*
X605294Y593000D02*
X613155Y585139D01*
X406000Y601000D02*
X618385D01*
X360600Y580000D02*
Y581400D01*
X386800Y580000D02*
Y581800D01*
X16000Y564743D02*
X31257Y580000D01*
X70627Y502000D02*
X232424D01*
X8000Y385706D02*
X12000Y381706D01*
X61000Y459885D02*
X77487D01*
X72485Y473745D02*
X84740Y486000D01*
X48000Y467645D02*
X74355Y494000D01*
X16000Y403321D02*
Y564743D01*
X40000Y417627D02*
Y471373D01*
X77487Y459885D02*
X95602Y478000D01*
X32000Y414314D02*
X86314Y360000D01*
X16000Y403321D02*
X24808Y394514D01*
X40000Y471373D02*
X70627Y502000D01*
X32000Y474686D02*
X67444Y510130D01*
X32000Y414314D02*
Y474686D01*
X24000Y478000D02*
X64130Y518130D01*
X24000Y411000D02*
Y478000D01*
X8000Y385706D02*
Y568057D01*
X12000Y379000D02*
Y381706D01*
X24808Y391808D02*
Y394514D01*
X40000Y417627D02*
X89627Y368000D01*
X48000Y421000D02*
Y467645D01*
X74355Y494000D02*
X215071D01*
X221071Y488000D02*
X223000D01*
X215071Y494000D02*
X221071Y488000D01*
X86314Y360000D02*
X124000D01*
X259000Y225000D01*
X463100Y408900D02*
Y429000D01*
X386900Y408100D02*
Y427000D01*
X361500Y408500D02*
Y429000D01*
X183350Y427000D02*
X183850Y426500D01*
X513900Y410830D02*
Y427000D01*
X488500Y416000D02*
Y427000D01*
X285300Y406700D02*
Y427000D01*
X336100Y406900D02*
Y427000D01*
X386900Y452400D02*
Y478900D01*
X361500Y452400D02*
Y477500D01*
D11*
X614000Y297000D02*
D03*
X613000Y219000D02*
D03*
X28400Y241000D02*
D03*
Y281000D02*
D03*
Y321000D02*
D03*
Y361000D02*
D03*
X658000Y297000D02*
D03*
Y257000D02*
D03*
Y219000D02*
D03*
D12*
X588600Y297000D02*
D03*
X587600Y219000D02*
D03*
X53800Y241000D02*
D03*
Y281000D02*
D03*
Y321000D02*
D03*
Y361000D02*
D03*
X683400Y297000D02*
D03*
Y257000D02*
D03*
Y219000D02*
D03*
X67000Y115000D02*
D03*
X85615Y173385D02*
D03*
X106000Y392000D02*
D03*
X339000Y485000D02*
D03*
X269000Y486000D02*
D03*
X240000Y497130D02*
D03*
X616000Y537000D02*
D03*
X615339Y585139D02*
D03*
X627621Y571980D02*
D03*
X621000Y503000D02*
D03*
X644808Y458539D02*
D03*
X670808Y453901D02*
D03*
X658297Y545980D02*
D03*
X579000Y366500D02*
D03*
X609192Y377808D02*
D03*
X630000Y324000D02*
D03*
X517386Y480000D02*
D03*
X666000Y482000D02*
D03*
X600257Y348341D02*
D03*
X643000Y410000D02*
D03*
X675000Y511000D02*
D03*
X676185Y543969D02*
D03*
X671000Y435708D02*
D03*
X425000Y493000D02*
D03*
X400000D02*
D03*
X565635Y407000D02*
D03*
X259000Y379000D02*
D03*
X184000Y407000D02*
D03*
X437000Y406000D02*
D03*
X259300Y101000D02*
D03*
X208400Y580000D02*
D03*
X386800D02*
D03*
X360600D02*
D03*
X437000D02*
D03*
X412000D02*
D03*
X72485Y473745D02*
D03*
X61000Y459885D02*
D03*
X12000Y379000D02*
D03*
X24808Y391808D02*
D03*
X223000Y488000D02*
D03*
X646766Y592000D02*
D03*
D13*
X590100Y458400D02*
D03*
X488500D02*
D03*
X463100D02*
D03*
X437700D02*
D03*
X412300D02*
D03*
X386900D02*
D03*
X361500D02*
D03*
X336100D02*
D03*
X310700D02*
D03*
X539300D02*
D03*
X513900D02*
D03*
X285300D02*
D03*
X564700D02*
D03*
X590100Y433000D02*
D03*
X539300D02*
D03*
X564700D02*
D03*
X488500D02*
D03*
X463100D02*
D03*
X437700D02*
D03*
X412300D02*
D03*
X386900D02*
D03*
X361500D02*
D03*
X513900D02*
D03*
X310700D02*
D03*
X336100D02*
D03*
X285300D02*
D03*
X259900Y458400D02*
D03*
X234500D02*
D03*
Y433000D02*
D03*
X209100D02*
D03*
X183700Y458400D02*
D03*
X158300D02*
D03*
X183700Y433000D02*
D03*
X158300D02*
D03*
X132900Y458400D02*
D03*
X107500D02*
D03*
X132900Y433000D02*
D03*
X107500D02*
D03*
X209100Y458400D02*
D03*
X259900Y433000D02*
D03*
X488200Y75930D02*
D03*
X513600D02*
D03*
X437400D02*
D03*
X462800D02*
D03*
X564400D02*
D03*
X589800D02*
D03*
X539000D02*
D03*
X335800D02*
D03*
X361200D02*
D03*
X310400D02*
D03*
X386600D02*
D03*
X412000D02*
D03*
X285000Y50530D02*
D03*
X513600D02*
D03*
X462800D02*
D03*
X488200D02*
D03*
X564400D02*
D03*
X589800D02*
D03*
X539000D02*
D03*
X335800D02*
D03*
X361200D02*
D03*
X310400D02*
D03*
X412000D02*
D03*
X437400D02*
D03*
X386600D02*
D03*
X183400Y75930D02*
D03*
X208800D02*
D03*
X158000D02*
D03*
X259600D02*
D03*
X285000D02*
D03*
X234200D02*
D03*
X56400D02*
D03*
X81800D02*
D03*
X31000D02*
D03*
X107200D02*
D03*
X132600D02*
D03*
X31000Y50530D02*
D03*
X183400D02*
D03*
X208800D02*
D03*
X158000D02*
D03*
X234200D02*
D03*
X259600D02*
D03*
X56400D02*
D03*
X81800D02*
D03*
X107200D02*
D03*
X132600D02*
D03*
X488200Y558530D02*
D03*
X513600D02*
D03*
X437400D02*
D03*
X462800D02*
D03*
X564400D02*
D03*
X589800D02*
D03*
X539000D02*
D03*
X335800D02*
D03*
X361200D02*
D03*
X310400D02*
D03*
X386600D02*
D03*
X412000D02*
D03*
X285000Y533130D02*
D03*
X513600D02*
D03*
X462800D02*
D03*
X488200D02*
D03*
X564400D02*
D03*
X589800D02*
D03*
X539000D02*
D03*
X335800D02*
D03*
X361200D02*
D03*
X310400D02*
D03*
X412000D02*
D03*
X437400D02*
D03*
X386600D02*
D03*
X183400Y558530D02*
D03*
X208800D02*
D03*
X158000D02*
D03*
X259600D02*
D03*
X285000D02*
D03*
X234200D02*
D03*
X56400D02*
D03*
X81800D02*
D03*
X31000D02*
D03*
X107200D02*
D03*
X132600D02*
D03*
X31000Y533130D02*
D03*
X183400D02*
D03*
X208800D02*
D03*
X158000D02*
D03*
X234200D02*
D03*
X259600D02*
D03*
X56400D02*
D03*
X81800D02*
D03*
X107200D02*
D03*
X132600D02*
D03*
D14*
X105100Y212000D02*
D03*
X28900D02*
D03*
X187100Y270000D02*
D03*
X110900D02*
D03*
D15*
X111000Y328700D02*
D03*
D16*
Y316000D02*
D03*
Y303300D02*
D03*
M02*
