M48
;Layer_Color=9474304
;FILE_FORMAT=4:4
METRIC,LZ
;TYPE=PLATED
T1F00S00C0.8000
T2F00S00C0.8500
T3F00S00C0.9000
T4F00S00C1.3000
%
T01
X00111Y003033
Y00316
Y003287
T02
X000289Y00212
X001051
X001109Y0027
X001871
T03
X00075Y00174
X000538Y00241
X000284
Y00281
X000538
Y00321
X000284
Y00361
X000538
X00012Y00379
X00024808Y00391808
X00106Y00392
X00259Y00379
X002593Y00101
X005876Y00219
X00613
X00658
X006834
Y00257
X00658
Y00297
X006834
X00614Y00297
X005886
X00600257Y00348341
X00609192Y00377808
X00579Y003665
X0063Y00324
X00643Y0041
X00644808Y00458539
X00670808Y00453901
X00671Y00435708
X00666Y00482
X00675Y00511
X00676185Y00543969
X00658297Y0054598
X00616Y00537
X00621Y00503
X00627621Y0057198
X00615339Y00585139
X00646766Y00592
X00437Y0058
X00412
X003868
X003606
X00339Y00485
X004Y00493
X00425
X00437Y00406
X00565635Y00407
X00517386Y0048
X00269Y00486
X0024Y0049713
X00223Y00488
X002084Y0058
X00184Y00407
X00061Y00459885
X00072485Y00473745
T04
X00031Y0005053
Y0007593
X000564
X000818
X001072
X001326
X00158
X001834
X002088
X002342
X002596
X00285
X003104
Y0005053
X00285
X002596
X002342
X002088
X001834
X00158
X001326
X001072
X000818
X000564
X003358
Y0007593
X003612
X003866
X00412
X004374
X004628
X004882
X005136
X00539
X005644
X005898
Y0005053
X005644
X00539
X005136
X004882
X004628
X004374
X00412
X003866
X003612
X003615Y00433
Y004584
X003869
X004123
X004377
X004631
X004885
X005139
X005393
X005647
X005901
Y00433
X005647
X005393
X005139
X004885
X004631
X004377
X004123
X003869
X003361
Y004584
X003358Y0053313
Y0055853
X003612
X003866
X00412
X004374
X004628
X004882
X005136
X00539
X005644
X005898
Y0053313
X005644
X00539
X005136
X004882
X004628
X004374
X00412
X003866
X003612
X003104
Y0055853
X00285
Y0053313
X002596
Y0055853
X002342
X002088
X001834
X00158
X001326
X001072
X000818
X000564
X00031
Y0053313
X000564
X000818
X001072
X001326
X00158
X001834
X002088
X002342
X002345Y004584
X002599
X002853
X003107
Y00433
X002853
X002599
X002345
X002091
X001837
Y004584
X001583
Y00433
X001329
Y004584
X001075
Y00433
X002091Y004584
M30
