G04*
G04 #@! TF.GenerationSoftware,Altium Limited,Altium Designer,22.2.1 (43)*
G04*
G04 Layer_Physical_Order=2*
G04 Layer_Color=16711680*
%FSLAX44Y44*%
%MOMM*%
G71*
G04*
G04 #@! TF.SameCoordinates,C540050E-BCC2-4D0B-BADB-C6BBA61EEE44*
G04*
G04*
G04 #@! TF.FilePolarity,Positive*
G04*
G01*
G75*
%ADD10C,0.5000*%
%ADD11R,1.5000X1.5000*%
%ADD12C,1.5000*%
%ADD13C,1.9000*%
%ADD14C,1.4000*%
%ADD15R,1.0500X1.0500*%
%ADD16C,1.0500*%
D10*
X106132Y391867D02*
X129750Y368250D01*
X182071Y407000D02*
X184000D01*
X176071Y413000D02*
X182071Y407000D01*
X24808Y391808D02*
X46000Y413000D01*
X29500Y377500D02*
X57000Y405000D01*
X149615D01*
X46000Y413000D02*
X176071D01*
X223000Y488000D02*
Y506000D01*
X263615Y499000D02*
X362777D01*
X240000Y497130D02*
X250370Y507500D01*
X343570Y515500D02*
X361200Y533130D01*
X270000Y485000D02*
X339000D01*
X239615Y475000D02*
X263615Y499000D01*
X360970Y507500D02*
X386600Y533130D01*
X232500Y515500D02*
X343570D01*
X250370Y507500D02*
X360970D01*
X223000Y506000D02*
X232500Y515500D01*
X362777Y499000D02*
X381777Y480000D01*
X269000Y486000D02*
X270000Y485000D01*
X547281Y489032D02*
X592956D01*
X543968Y481032D02*
X589642D01*
X532952Y513778D02*
X533849D01*
X532314Y504000D02*
X547281Y489032D01*
X517330Y504000D02*
X532314D01*
X499930Y496000D02*
X529000D01*
X548627Y499000D02*
X594302D01*
X533849Y513778D02*
X548627Y499000D01*
X513600Y533130D02*
X532952Y513778D01*
X529000Y496000D02*
X543968Y481032D01*
X655591Y545980D02*
X658297D01*
X596013Y573530D02*
X619543Y550000D01*
X651572D01*
X655591Y545980D01*
X589800Y558530D02*
X592135D01*
X613665Y537000D02*
X616000D01*
X592135Y558530D02*
X613665Y537000D01*
X615339Y585139D02*
X615498Y584980D01*
X627621Y571980D02*
X629534Y570067D01*
X668619D01*
X635401Y584980D02*
X642314Y578067D01*
X615498Y584980D02*
X635401D01*
X599327Y581530D02*
X621876Y558980D01*
X663682D01*
X676185Y546478D01*
X621000Y502000D02*
Y503000D01*
X632322Y516000D02*
X666000Y482322D01*
X589800Y533130D02*
X593588D01*
X662000Y524000D02*
X675000Y511000D01*
X564400Y529342D02*
X577742Y516000D01*
X621000Y502000D02*
X657808Y465192D01*
X577742Y516000D02*
X632322D01*
X593588Y533130D02*
X602718Y524000D01*
X662000D01*
X644808Y458539D02*
Y458731D01*
X630625Y472913D02*
X644808Y458731D01*
X670808Y453901D02*
X671192D01*
X697185Y461893D02*
Y552815D01*
X671000Y435708D02*
X697185Y461893D01*
X671192Y453901D02*
X689185Y471893D01*
X609192Y377808D02*
Y380514D01*
X613100Y384421D02*
Y468888D01*
X609192Y380514D02*
X613100Y384421D01*
X579000Y366500D02*
X579206D01*
X585813Y373107D01*
X586107D02*
X605100Y392100D01*
X622000Y387956D02*
Y471301D01*
X630192Y359891D02*
Y391078D01*
X600257Y348642D02*
X622192Y370577D01*
X575600Y305298D02*
X630192Y359891D01*
X630000Y422457D02*
X657808Y450264D01*
X592956Y489032D02*
X613100Y468888D01*
X585813Y373107D02*
X586107D01*
X605100Y392100D02*
Y465574D01*
X594302Y499000D02*
X622000Y471301D01*
Y387956D02*
X622192Y387764D01*
X630000Y391270D02*
X630192Y391078D01*
X622192Y370577D02*
Y387764D01*
X630000Y391270D02*
Y422457D01*
X657808Y450264D02*
Y465192D01*
X631000Y325000D02*
X642000D01*
X618615Y337000D02*
X642000D01*
X679434Y299566D01*
X589214Y307599D02*
X618615Y337000D01*
X630000Y324000D02*
X631000Y325000D01*
X129750Y236650D02*
Y368250D01*
X105100Y212000D02*
X129750Y236650D01*
X105100Y180100D02*
Y212000D01*
X16000Y91000D02*
X105100Y180100D01*
X424000Y393000D02*
X437000Y406000D01*
X161615Y393000D02*
X424000D01*
X642314Y578067D02*
X671933D01*
X697185Y552815D01*
X689185Y471893D02*
Y549502D01*
X668619Y570067D02*
X689185Y549502D01*
X381777Y480000D02*
X517386D01*
X462800Y533130D02*
X499930Y496000D01*
X597615Y507000D02*
X630625Y473990D01*
Y472913D02*
Y473990D01*
X565130Y507000D02*
X597615D01*
X589642Y481032D02*
X605100Y465574D01*
X666000Y482000D02*
Y482322D01*
X683400Y299566D02*
Y369600D01*
X643000Y410000D02*
X683400Y369600D01*
X565635Y285365D02*
X613000Y238000D01*
X565635Y285365D02*
Y407000D01*
X600257Y348341D02*
Y348642D01*
X676185Y543969D02*
Y546478D01*
X553209Y598139D02*
X638837D01*
X644976Y592000D01*
X646766D01*
X562000Y581530D02*
X599327D01*
X579400Y573530D02*
X596013D01*
X539000Y533130D02*
X565130Y507000D01*
X488200Y533130D02*
X517330Y504000D01*
X425000Y493000D02*
Y520730D01*
X400000Y493000D02*
Y517342D01*
X217615Y475000D02*
X239615D01*
X259000Y341900D02*
Y379000D01*
X149615Y405000D02*
X161615Y393000D01*
X187100Y270000D02*
X259000Y341900D01*
X589214Y297614D02*
Y307599D01*
X575600Y286714D02*
Y305298D01*
X588600Y297000D02*
X589214Y297614D01*
X683400Y257000D02*
Y299566D01*
X462800Y558530D02*
Y572616D01*
X442416Y593000D02*
X462800Y572616D01*
X40943Y601000D02*
X445730D01*
X488200Y558530D01*
X44257Y593000D02*
X442416D01*
X62000Y114000D02*
X526330D01*
X259450Y76080D02*
X259600Y75930D01*
X526330Y114000D02*
X564400Y75930D01*
X33679Y85679D02*
X62000Y114000D01*
X259300Y101000D02*
X259450Y100850D01*
Y76080D02*
Y100850D01*
X208400Y580000D02*
X208600Y579800D01*
Y558730D02*
Y579800D01*
X8000Y568057D02*
X40943Y601000D01*
X412000Y558530D02*
Y580000D01*
X437200Y558730D02*
X437400Y558530D01*
X437000Y580000D02*
X437200Y579800D01*
X208600Y558730D02*
X208800Y558530D01*
X360900Y558830D02*
X361200Y558530D01*
X386700Y579900D02*
X386800Y580000D01*
X437200Y558730D02*
Y579800D01*
X16000Y564743D02*
X44257Y593000D01*
X386600Y558530D02*
X386700Y558630D01*
X360900Y558830D02*
Y579700D01*
X360600Y580000D02*
X360900Y579700D01*
X386700Y558630D02*
Y579900D01*
X8000Y512686D02*
Y568057D01*
X16000Y516000D02*
X58255Y473745D01*
X72485D01*
X8000Y512686D02*
X60802Y459885D01*
X16000Y516000D02*
Y564743D01*
X60802Y459885D02*
X61000D01*
X12000Y379000D02*
X13500Y377500D01*
X29500D01*
X642000Y325000D02*
X657929Y309071D01*
X513600Y558530D02*
X553209Y598139D01*
X208800Y483815D02*
X217615Y475000D01*
X208800Y483815D02*
Y533130D01*
X539000Y558530D02*
X562000Y581530D01*
X564400Y558530D02*
X579400Y573530D01*
X110900Y270000D02*
X121750Y280850D01*
Y307753D01*
X8000Y107000D02*
X75000Y174000D01*
X8000Y41003D02*
Y107000D01*
X31000Y75930D02*
X33679Y78609D01*
Y85679D01*
X16000Y44317D02*
Y91000D01*
X564400Y529342D02*
Y533130D01*
X657929Y297071D02*
Y309071D01*
X679434Y299566D02*
X682982D01*
X657929Y297071D02*
X658000Y297000D01*
X425000Y520730D02*
X437400Y533130D01*
X588700Y217900D02*
X600600Y206000D01*
X588700Y77030D02*
Y217900D01*
Y77030D02*
X589800Y75930D01*
X587600Y219000D02*
X588700Y217900D01*
X613000Y219000D02*
Y238000D01*
Y219000D02*
X658000D01*
X575600Y286714D02*
X605314Y257000D01*
X658000D01*
X683400Y219000D02*
Y257000D01*
X670400Y206000D02*
X683400Y219000D01*
X600600Y206000D02*
X670400D01*
X614000Y297000D02*
X658000D01*
X658000Y297000D01*
X112052Y314948D02*
X114555D01*
X121750Y307753D01*
X111000Y316000D02*
X112052Y314948D01*
X28400Y241000D02*
X28900Y240500D01*
Y212000D02*
Y240500D01*
X28400Y241000D02*
Y281000D01*
Y321000D01*
Y361000D01*
X53800Y321000D02*
Y361000D01*
Y241000D02*
Y281000D01*
Y321000D01*
X71500Y303300D02*
X111000D01*
X53800Y321000D02*
X71500Y303300D01*
X412000Y529342D02*
Y533130D01*
X400000Y517342D02*
X412000Y529342D01*
X31000Y50530D02*
Y75930D01*
X236600Y27530D02*
X259600Y50530D01*
X16000Y44317D02*
X24787Y35530D01*
X41400D02*
X56400Y50530D01*
X21473Y27530D02*
X236600D01*
X8000Y41003D02*
X21473Y27530D01*
X24787Y35530D02*
X41400D01*
X589800Y50530D02*
Y75930D01*
X564400D02*
X589800D01*
D11*
X614000Y297000D02*
D03*
X613000Y219000D02*
D03*
X28400Y241000D02*
D03*
Y281000D02*
D03*
Y321000D02*
D03*
Y361000D02*
D03*
X658000Y297000D02*
D03*
Y257000D02*
D03*
Y219000D02*
D03*
D12*
X588600Y297000D02*
D03*
X587600Y219000D02*
D03*
X53800Y241000D02*
D03*
Y281000D02*
D03*
Y321000D02*
D03*
Y361000D02*
D03*
X683400Y297000D02*
D03*
Y257000D02*
D03*
Y219000D02*
D03*
X106000Y392000D02*
D03*
X339000Y485000D02*
D03*
X269000Y486000D02*
D03*
X240000Y497130D02*
D03*
X616000Y537000D02*
D03*
X615339Y585139D02*
D03*
X627621Y571980D02*
D03*
X621000Y503000D02*
D03*
X644808Y458539D02*
D03*
X670808Y453901D02*
D03*
X658297Y545980D02*
D03*
X579000Y366500D02*
D03*
X609192Y377808D02*
D03*
X630000Y324000D02*
D03*
X517386Y480000D02*
D03*
X666000Y482000D02*
D03*
X600257Y348341D02*
D03*
X643000Y410000D02*
D03*
X675000Y511000D02*
D03*
X676185Y543969D02*
D03*
X671000Y435708D02*
D03*
X425000Y493000D02*
D03*
X400000D02*
D03*
X565635Y407000D02*
D03*
X259000Y379000D02*
D03*
X184000Y407000D02*
D03*
X437000Y406000D02*
D03*
X259300Y101000D02*
D03*
X208400Y580000D02*
D03*
X386800D02*
D03*
X360600D02*
D03*
X437000D02*
D03*
X412000D02*
D03*
X72485Y473745D02*
D03*
X61000Y459885D02*
D03*
X12000Y379000D02*
D03*
X24808Y391808D02*
D03*
X223000Y488000D02*
D03*
X646766Y592000D02*
D03*
X75000Y174000D02*
D03*
D13*
X590100Y458400D02*
D03*
X488500D02*
D03*
X463100D02*
D03*
X437700D02*
D03*
X412300D02*
D03*
X386900D02*
D03*
X361500D02*
D03*
X336100D02*
D03*
X310700D02*
D03*
X539300D02*
D03*
X513900D02*
D03*
X285300D02*
D03*
X564700D02*
D03*
X590100Y433000D02*
D03*
X539300D02*
D03*
X564700D02*
D03*
X488500D02*
D03*
X463100D02*
D03*
X437700D02*
D03*
X412300D02*
D03*
X386900D02*
D03*
X361500D02*
D03*
X513900D02*
D03*
X310700D02*
D03*
X336100D02*
D03*
X285300D02*
D03*
X259900Y458400D02*
D03*
X234500D02*
D03*
Y433000D02*
D03*
X209100D02*
D03*
X183700Y458400D02*
D03*
X158300D02*
D03*
X183700Y433000D02*
D03*
X158300D02*
D03*
X132900Y458400D02*
D03*
X107500D02*
D03*
X132900Y433000D02*
D03*
X107500D02*
D03*
X209100Y458400D02*
D03*
X259900Y433000D02*
D03*
X488200Y75930D02*
D03*
X513600D02*
D03*
X437400D02*
D03*
X462800D02*
D03*
X564400D02*
D03*
X589800D02*
D03*
X539000D02*
D03*
X335800D02*
D03*
X361200D02*
D03*
X310400D02*
D03*
X386600D02*
D03*
X412000D02*
D03*
X285000Y50530D02*
D03*
X513600D02*
D03*
X462800D02*
D03*
X488200D02*
D03*
X564400D02*
D03*
X589800D02*
D03*
X539000D02*
D03*
X335800D02*
D03*
X361200D02*
D03*
X310400D02*
D03*
X412000D02*
D03*
X437400D02*
D03*
X386600D02*
D03*
X183400Y75930D02*
D03*
X208800D02*
D03*
X158000D02*
D03*
X259600D02*
D03*
X285000D02*
D03*
X234200D02*
D03*
X56400D02*
D03*
X81800D02*
D03*
X31000D02*
D03*
X107200D02*
D03*
X132600D02*
D03*
X31000Y50530D02*
D03*
X183400D02*
D03*
X208800D02*
D03*
X158000D02*
D03*
X234200D02*
D03*
X259600D02*
D03*
X56400D02*
D03*
X81800D02*
D03*
X107200D02*
D03*
X132600D02*
D03*
X488200Y558530D02*
D03*
X513600D02*
D03*
X437400D02*
D03*
X462800D02*
D03*
X564400D02*
D03*
X589800D02*
D03*
X539000D02*
D03*
X335800D02*
D03*
X361200D02*
D03*
X310400D02*
D03*
X386600D02*
D03*
X412000D02*
D03*
X285000Y533130D02*
D03*
X513600D02*
D03*
X462800D02*
D03*
X488200D02*
D03*
X564400D02*
D03*
X589800D02*
D03*
X539000D02*
D03*
X335800D02*
D03*
X361200D02*
D03*
X310400D02*
D03*
X412000D02*
D03*
X437400D02*
D03*
X386600D02*
D03*
X183400Y558530D02*
D03*
X208800D02*
D03*
X158000D02*
D03*
X259600D02*
D03*
X285000D02*
D03*
X234200D02*
D03*
X56400D02*
D03*
X81800D02*
D03*
X31000D02*
D03*
X107200D02*
D03*
X132600D02*
D03*
X31000Y533130D02*
D03*
X183400D02*
D03*
X208800D02*
D03*
X158000D02*
D03*
X234200D02*
D03*
X259600D02*
D03*
X56400D02*
D03*
X81800D02*
D03*
X107200D02*
D03*
X132600D02*
D03*
D14*
X105100Y212000D02*
D03*
X28900D02*
D03*
X187100Y270000D02*
D03*
X110900D02*
D03*
D15*
X111000Y328700D02*
D03*
D16*
Y316000D02*
D03*
Y303300D02*
D03*
M02*
